<svg width="34" height="34" viewBox="0 0 34 34" fill="none" xmlns="http://www.w3.org/2000/svg">
<path fill-rule="evenodd" clip-rule="evenodd" d="M17.0582 3.57528e-05C7.65012 3.57528e-05 0 7.6353 0 17.0277C0 25.8606 6.79044 33.2448 15.6062 33.9967C15.8716 34.0182 16.1345 33.9338 16.3374 33.7617C16.5404 33.5895 16.6664 33.3441 16.6879 33.0792C16.7319 32.5311 16.3251 32.0499 15.7767 32.0013C7.98111 31.3361 2.00864 24.8389 2.00864 17.0277C2.00864 8.71846 8.73465 2.00327 17.0581 2.00327C21.9713 2.00327 26.5227 4.388 29.3212 8.31824L26.9364 7.99937C26.6724 7.96499 26.4054 8.03682 26.1943 8.19891C25.9836 8.36128 25.8458 8.60052 25.8117 8.86406C25.7386 9.41098 26.1221 9.91405 26.67 9.98896L31.514 10.6384C31.7839 10.6748 32.0568 10.6002 32.2705 10.4316C32.484 10.2628 32.6198 10.0149 32.6467 9.74442L33.1209 4.92409C33.1464 4.65943 33.0658 4.39561 32.8961 4.19047C32.7267 3.98533 32.4826 3.85566 32.2175 3.83051C31.6683 3.77713 31.1787 4.17649 31.1222 4.72453L30.8929 7.06619C27.7165 2.66812 22.5849 3.57528e-05 17.0582 3.57528e-05ZM16.6055 8.04453C16.3393 8.04565 16.0845 8.15213 15.8973 8.34077C15.7097 8.52914 15.605 8.78457 15.6061 9.05007V18.5441C15.605 18.8884 15.7811 19.2089 16.0725 19.3931L20.701 22.2767C21.1693 22.5668 21.7843 22.4254 22.0786 21.9598C22.2205 21.7345 22.267 21.462 22.2073 21.2024C22.1477 20.9431 21.9873 20.7178 21.7611 20.5767L17.6127 17.9885V9.05037C17.6136 8.78348 17.508 8.52693 17.3188 8.33828C17.1295 8.14936 16.8728 8.04372 16.6055 8.04484L16.6055 8.04453ZM32.6697 12.3328C32.5947 12.3317 32.5196 12.3389 32.4463 12.3543C31.9068 12.4742 31.5662 13.0069 31.684 13.5457L31.8035 14.115L31.9054 14.6627L31.9799 15.2085L32.0034 15.4081H32.0031C32.03 15.6733 32.1613 15.9167 32.3685 16.0849C32.5753 16.2532 32.841 16.332 33.1064 16.3041C33.6565 16.2437 34.0537 15.7501 33.9941 15.2007L33.9725 14.9874V14.9855V14.9835V14.9816V14.9796V14.9774V14.9754V14.9735V14.9715V14.9696V14.9676V14.9654V14.9634V14.9615V14.9595V14.9575V14.9556V14.9534V14.9514V14.9494L33.8843 14.3645V14.3625V14.3606V14.3586V14.3564V14.3544V14.3525V14.3505V14.3486V14.3466V14.3444V14.3424V14.3405V14.3385V14.3366V14.3346V14.3324V14.3304V14.3285V14.3265L33.7805 13.7435C33.7782 13.7309 33.7754 13.7186 33.7726 13.7064L33.6394 13.1214C33.5406 12.6642 33.1377 12.3361 32.6694 12.3311L32.6697 12.3328ZM32.8598 18.3053C32.3942 18.34 32.0143 18.6902 31.9427 19.1504L31.876 19.5573L31.78 20.0895L31.6625 20.6137L31.5586 21.005C31.4892 21.2621 31.5253 21.5363 31.6588 21.7668C31.7921 21.9974 32.0121 22.1653 32.2699 22.2335C32.5283 22.302 32.8032 22.2646 33.0339 22.1299C33.2645 21.9951 33.4316 21.7738 33.4986 21.5156L33.6024 21.1087C33.6052 21.0989 33.6077 21.0891 33.6102 21.079L33.7435 20.5176C33.7466 20.5053 33.7491 20.493 33.7516 20.4807L33.8555 19.9114C33.8583 19.9016 33.8611 19.8916 33.8636 19.8818L33.9302 19.4534C33.9694 19.1906 33.9025 18.9229 33.7441 18.7096C33.5856 18.4961 33.3488 18.3542 33.0856 18.315H33.0837C33.0098 18.3036 32.9348 18.3002 32.8603 18.3053L32.8598 18.3053ZM30.9159 23.9571C30.8501 23.9624 30.7851 23.9741 30.7219 23.9923C30.4671 24.065 30.2516 24.2352 30.1222 24.4657L30.0478 24.5988L29.7656 25.0644L29.4697 25.5163L29.1523 25.9604L29.1072 26.019C28.9451 26.2298 28.8732 26.4961 28.9079 26.7594C28.9423 27.0229 29.0803 27.2619 29.2914 27.4237C29.5025 27.5855 29.7693 27.6571 30.033 27.6227C30.297 27.5883 30.5363 27.4505 30.6984 27.2398L30.7591 27.1655C30.7664 27.1557 30.7737 27.1459 30.7807 27.1358L31.1138 26.6624C31.1219 26.6529 31.1298 26.6428 31.1373 26.6331L31.4548 26.1518C31.4601 26.142 31.4654 26.132 31.4705 26.1222L31.7742 25.6272C31.7789 25.6175 31.7834 25.6077 31.7879 25.5976L31.8702 25.4411C32.1384 24.959 31.9657 24.3515 31.4842 24.0815C31.3112 23.9848 31.1135 23.9412 30.9159 23.9563L30.9159 23.9571ZM27.2103 28.5094V28.5114C26.9517 28.4896 26.6944 28.569 26.4931 28.7324L26.0483 29.0728L25.5369 29.4348L25.0195 29.7752L24.9745 29.8048C24.7452 29.9406 24.5795 30.1619 24.514 30.4202C24.4487 30.6781 24.4888 30.9515 24.6257 31.1801C24.909 31.6521 25.5203 31.8075 25.9954 31.5283L26.062 31.4911C26.0746 31.4836 26.0869 31.4757 26.0992 31.4676L26.6558 31.1057C26.6683 31.0962 26.6807 31.0864 26.693 31.0761L27.2338 30.6907C27.2436 30.6837 27.2534 30.6767 27.2632 30.6692L27.7374 30.2994C27.7472 30.2924 27.757 30.2852 27.7668 30.2779C27.9712 30.1074 28.0994 29.8626 28.1229 29.5977C28.1464 29.3327 28.0636 29.0692 27.8922 28.8655C27.7212 28.6609 27.476 28.5329 27.2103 28.5094ZM21.7804 31.3246C21.7059 31.3293 21.6323 31.3425 21.5609 31.3637L21.5589 31.3657L21.071 31.5124L20.4714 31.6669L19.8718 31.7941L19.7307 31.8156C19.4664 31.8598 19.231 32.007 19.0765 32.2253C18.9219 32.4436 18.8609 32.7147 18.9076 32.9777C19.0042 33.5196 19.5204 33.8821 20.0638 33.7896L20.2264 33.768C20.2388 33.7655 20.2511 33.763 20.2637 33.7602L20.9084 33.6194C20.9232 33.6169 20.9383 33.6143 20.9534 33.6113L21.5903 33.4489C21.6026 33.4447 21.6152 33.4402 21.6275 33.4352L22.1311 33.2868C22.3867 33.2108 22.6017 33.0361 22.728 32.8016C22.8545 32.5669 22.8822 32.2919 22.8049 32.0368C22.6711 31.5904 22.2462 31.295 21.7801 31.3247L21.7804 31.3246Z" fill="#ACACAC"/>
</svg>
